<svg id="Layer_1" data-name="Layer 1" xmlns="http://www.w3.org/2000/svg" viewBox="0 0 128 128"><defs><style>.cls-1{fill:#9b85bd;}.cls-2{fill:#fff;}</style></defs><g id="Inverted_Block" data-name="Inverted Block"><rect class="cls-1" width="128" height="128"/><path class="cls-2" d="M38.92,102.11V25.85H53.1v76.26ZM46.6,77.84l1-14.24a26.13,26.13,0,0,0,13.19-3.17,27.1,27.1,0,0,0,9.19-8.54,39.1,39.1,0,0,0,5.37-12.11,55.5,55.5,0,0,0,1.74-13.93h14.4a63.39,63.39,0,0,1-3,19.49A53,53,0,0,1,79.66,62a41.9,41.9,0,0,1-14.1,11.57A41.15,41.15,0,0,1,46.6,77.84Zm31,24.27L62.28,68.33l13.21-5.48L95.1,102.11Z"/></g></svg>