<svg id="Layer_1" data-name="Layer 1" xmlns="http://www.w3.org/2000/svg" viewBox="0 0 400.39 128"><defs><style>.cls-1{fill:#9b85bd;}.cls-2{fill:#fff;}</style></defs><path class="cls-1" d="M51.94,102.11V26H66.08v76.07ZM59.6,77.9l1-14.2a26.1,26.1,0,0,0,13.15-3.16A27.24,27.24,0,0,0,82.88,52a38.78,38.78,0,0,0,5.36-12.08A55.27,55.27,0,0,0,90,26h14.36a63.13,63.13,0,0,1-3,19.45,52.7,52.7,0,0,1-8.76,16.63A41.86,41.86,0,0,1,78.51,73.67,41.06,41.06,0,0,1,59.6,77.9Zm30.91,24.21L75.24,68.42,88.42,63,108,102.11Z"/><path class="cls-2" d="M127,102.79c-3.81,0-6.77-.93-8.89-2.81s-3.18-4.52-3.18-8q0-6,4.16-9.23t11.79-3.21a37.26,37.26,0,0,1,5.09.3,32,32,0,0,1,4.35.95L138.78,88a22.07,22.07,0,0,0-3.89-.59c-1.15-.06-2.35-.08-3.62-.08q-7.09,0-7.09,4a3.26,3.26,0,0,0,1.28,2.79,6.21,6.21,0,0,0,3.75,1,10.09,10.09,0,0,0,5-1.11,7.6,7.6,0,0,0,3-2.84,7,7,0,0,0,1-3.55V85.35l1.28,9.19h-2.87l1.18-1.08a10.09,10.09,0,0,1-1.42,5.19,8,8,0,0,1-3.7,3.11A14.21,14.21,0,0,1,127,102.79Zm12.13-.34-.77-10.61-.14-4.67v-7A4.47,4.47,0,0,0,135.72,76a16.61,16.61,0,0,0-7.28-1.47l-9.16-.24L120,66l7.81.1q9.74.14,14.47,3.84T147,80.68V93.93l5,.75v7.43Z"/><path class="cls-2" d="M154.56,74.7V66.29h33.6V74.7Zm8.59,9.94V55.47h9.13V84.64Zm17.51,18.15q-9.27,0-13.39-3.72t-4.12-11.9V82.51h9.13V86.3c0,2.72.7,4.71,2.11,5.94s3.72,1.86,6.94,1.86a33,33,0,0,0,3.33-.18c1.19-.13,2.53-.29,4-.49l.81,8.55c-1.48.27-2.93.47-4.34.61S182.26,102.79,180.66,102.79Z"/><path class="cls-2" d="M217.8,102.79q-9.77,0-15.1-4.82t-5.34-13.84q0-8.79,4.86-13.65t13.89-4.87a19.66,19.66,0,0,1,9.52,2.16,12.25,12.25,0,0,1,5.63,6.12l-6.63,5.27a10.55,10.55,0,0,0-3.77-3.6,10.2,10.2,0,0,0-5-1.26,9,9,0,0,0-6.71,2.46q-2.41,2.47-2.41,7,0,5,3.09,7.68c2.06,1.76,5,2.63,8.81,2.63,1.62,0,3.23-.08,4.85-.23s3.18-.37,4.71-.64l.95,8.55a39.83,39.83,0,0,1-5.65.81C221.54,102.72,219.65,102.79,217.8,102.79Z"/><path class="cls-2" d="M239,102.11V51.41h9.16v50.7Zm21.19,0V80.48a7.17,7.17,0,0,0-1.33-4.63,4.67,4.67,0,0,0-3.81-1.62q-6.88,0-6.89,9.43l-2.1-10.88h3a8.62,8.62,0,0,1,2.46-5.4q2-1.77,5.95-1.77,5.69,0,8.79,3.45t3.11,9.73v23.32Z"/><path class="cls-2" d="M289.19,102.79c-3.81,0-6.77-.93-8.89-2.81s-3.18-4.52-3.18-8q0-6,4.16-9.23t11.8-3.21a37.21,37.21,0,0,1,5.08.3,31.72,31.72,0,0,1,4.35.95L301,88a22.07,22.07,0,0,0-3.89-.59c-1.14-.06-2.35-.08-3.61-.08q-7.09,0-7.1,4a3.28,3.28,0,0,0,1.28,2.79,6.23,6.23,0,0,0,3.76,1,10.08,10.08,0,0,0,5-1.11,7.7,7.7,0,0,0,3-2.84,7,7,0,0,0,1-3.55V85.35l1.29,9.19h-2.88L300,93.46a10.19,10.19,0,0,1-1.42,5.19,8,8,0,0,1-3.7,3.11A14.26,14.26,0,0,1,289.19,102.79Zm12.14-.34-.78-10.61-.14-4.67v-7A4.45,4.45,0,0,0,298,76a16.61,16.61,0,0,0-7.28-1.47l-9.16-.24.67-8.31,7.81.1q9.74.14,14.47,3.84t4.73,10.79V93.93l5,.75v7.43Z"/><path class="cls-2" d="M330.09,102.79a9.74,9.74,0,0,1-7.91-3.36q-2.81-3.37-2.81-9.48V66.29h9.17V87.68a7.18,7.18,0,0,0,1.4,4.75,4.75,4.75,0,0,0,3.87,1.67,5.43,5.43,0,0,0,4.85-2.48c1.09-1.66,1.64-4.43,1.64-8.33l1.82,11.93h-2.77a9.71,9.71,0,0,1-3.28,5.61A9.19,9.19,0,0,1,330.09,102.79ZM340.3,92V66.29h9.16V90Zm.61,10.48-.61-8.58V87.58h9.16v6.35l4.93.75v7.43Z"/></svg>